<?xml version="1.0" encoding="UTF-8"?>
<svg id="Layer_2" data-name="Layer 2" xmlns="http://www.w3.org/2000/svg" viewBox="0 0 54.78 80.07">
  <defs>
    <style>
      .cls-1 {
        fill: #4f6075;
      }
    </style>
  </defs>
  <g id="Layer_1-2" data-name="Layer 1">
    <path class="cls-1" d="m54.66,9.51c-.25-2.36-.84-4.24-1.6-5.66l-.05-.09c-.24-.45-.52-.89-.83-1.3-.5-.68-1.12-1.27-1.82-1.75-.05-.03-.09-.06-.14-.09-.56-.37-1.21-.59-1.88-.63h-21.52S6.29.01,6.29.01c-.71.04-1.4.29-1.98.71l-.08.06c-.65.47-1.23,1.04-1.7,1.69-.3.41-.58.84-.81,1.3-.03.05-.05.1-.08.16C.92,5.35.36,7.2.12,9.52c-.08.76-.12,1.57-.12,2.43v49.61c0,.89.03,1.81.12,2.78,0,.09.02.18.02.27.02.17.03.35.05.52.39,3.53,1.47,7.29,3.87,9.69,5.62,5.59,21.17,5.27,23.07,5.21,2.38.07,17.83.28,23.48-5.22,2.46-2.4,3.56-6.16,3.96-9.69.03-.27.06-.53.08-.79v-.04c.08-.95.12-1.88.12-2.74V11.95c0-.86-.04-1.67-.12-2.44Z"/>
  </g>
</svg>