<svg width="268" height="381" viewBox="0 0 268 381" fill="none" xmlns="http://www.w3.org/2000/svg">
<path d="M13.5 78L29 16.5C123.4 34.9 210 23.1667 241.5 15C244.7 15.8 254.167 55.3333 258.5 75C136.1 111.4 44.1667 92.1667 13.5 78Z" fill="#9D8564" stroke="black"/>
<circle cx="71.5" cy="361.5" r="1.5" fill="black"/>
<path d="M49.6816 15.7884C66.515 8.95511 125.882 -0.611558 228.682 15.7884C201.348 24.2884 127.282 36.1884 49.6816 15.7884Z" fill="#FDDC98" stroke="black" stroke-width="0.6"/>
<path d="M28.6816 18.2883C118.282 39.8883 209.015 27.2883 243.182 18.2883L239.682 9.28833C171.282 34.4883 72.515 19.7883 31.6816 9.28833L28.6816 18.2883Z" fill="#5B3327" stroke="black" stroke-width="0.6"/>
<path d="M56.1816 14.7884C73.6816 9.28839 218.682 14.7884 220.682 14.7884L238.182 9.2884C119.782 -3.9116 51.1816 3.7884 31.6816 9.2884L56.1816 14.7884Z" fill="#FFE3A2" stroke="black" stroke-width="0.6"/>
<circle cx="195.5" cy="362.5" r="1.5" fill="black"/>
<circle cx="130.5" cy="370.5" r="1.5" fill="black"/>
<circle cx="74.5" cy="364.5" r="1.5" fill="black"/>
<path d="M255 272C149.914 299.287 49.881 286.126 13 276.134C13 297.633 27.1461 332.293 34.2192 346.936C88.3787 386.626 187.469 366.23 230.244 351.07L255 272Z" fill="#58B7DA"/>
<path d="M230.5 346C151.3 381.6 65.8333 360.833 33 346L36.5 356C116.1 389.6 196.333 370 226.5 356L230.5 346Z" fill="#5D2E23" stroke="black" stroke-width="0.6"/>
<path d="M4.58487 177.509C1.77504 255.634 9.76969 274.487 14.1182 274.148C136.146 310.362 224.856 286.186 253.958 269.57C260.38 258.584 264.662 203.279 266 177L263.491 177.509C165.548 204.364 50.0775 188.698 4.58487 177.509Z" fill="#58B7DA"/>
<path d="M3.50019 176C1.10019 156.8 8.83353 103.333 13.0002 79C96.6002 110.2 211.5 91 258.5 77.5C266.1 108.3 266.334 154.667 265.5 174C155.1 211.2 44.8335 190.833 3.50019 176Z" fill="#58B7DA"/>
<path d="M3.68164 179.788V169.288C124.482 205.688 228.348 184.455 265.182 169.288V179.788C140.382 214.988 38.8483 194.455 3.68164 179.788Z" fill="#6D4231" stroke="black" stroke-width="0.6"/>
<path d="M253.182 274.288L255.682 262.788C156.082 304.388 49.8483 282.122 9.18164 265.788L11.6816 278.288C138.882 311.488 225.682 289.455 253.182 274.288Z" fill="#6D4231" stroke="black" stroke-width="0.6"/>
<circle cx="128.5" cy="290.5" r="1.5" fill="black"/>
<circle cx="207.5" cy="283.5" r="1.5" fill="black"/>
<circle cx="46.5" cy="281.5" r="1.5" fill="#131313"/>
<circle cx="57.5" cy="188.5" r="1.5" fill="#131313"/>
<circle cx="207.5" cy="188.5" r="1.5" fill="#131313"/>
<circle cx="128.5" cy="194.5" r="1.5" fill="#131313"/>
<path d="M257.182 71.2883C153.182 106.088 51.8483 88.1217 14.1816 74.7883L12.1816 84.2883C92.5816 115.888 210.682 95.7883 259.682 81.7883L257.182 71.2883Z" fill="#77462F" stroke="black" stroke-width="0.6"/>
<circle cx="71.5" cy="92.5" r="1.5" fill="black"/>
<circle cx="129.5" cy="95.5" r="1.5" fill="black"/>
<circle cx="197.5" cy="90.5" r="1.5" fill="black"/>
<path d="M36.1821 354.288C-21.4179 229.888 8.84881 72.4549 31.1821 9.28825C63.5822 -3.51175 183.682 3.95491 239.682 9.28825C293.282 152.088 253.015 298.788 226.182 354.288C145.382 389.888 65.8488 369.122 36.1821 354.288Z" stroke="#5B3327" stroke-width="3"/>
<path d="M13.5 78L29 16.5C123.4 34.9 210 23.1667 241.5 15C244.7 15.8 254.167 55.3333 258.5 75C136.1 111.4 44.1667 92.1667 13.5 78Z" fill="#9D8564" stroke="black"/>
<circle cx="71.5" cy="361.5" r="1.5" fill="black"/>
<path d="M49.6816 15.7884C66.515 8.95511 125.882 -0.611558 228.682 15.7884C201.348 24.2884 127.282 36.1884 49.6816 15.7884Z" fill="#FDDC98" stroke="black" stroke-width="0.6"/>
<path d="M28.6816 18.2883C118.282 39.8883 209.015 27.2883 243.182 18.2883L239.682 9.28833C171.282 34.4883 72.515 19.7883 31.6816 9.28833L28.6816 18.2883Z" fill="#5B3327" stroke="black" stroke-width="0.6"/>
<path d="M56.1816 14.7884C73.6816 9.28839 218.682 14.7884 220.682 14.7884L238.182 9.2884C119.782 -3.9116 51.1816 3.7884 31.6816 9.2884L56.1816 14.7884Z" fill="#FFE3A2" stroke="black" stroke-width="0.6"/>
<circle cx="195.5" cy="362.5" r="1.5" fill="black"/>
<circle cx="130.5" cy="370.5" r="1.5" fill="black"/>
<circle cx="74.5" cy="364.5" r="1.5" fill="black"/>
<path d="M255 272C149.914 299.287 49.881 286.126 13 276.134C13 297.633 27.1461 332.293 34.2192 346.936C88.3787 386.626 187.469 366.23 230.244 351.07L255 272Z" fill="#58B7DA"/>
<path d="M230.5 346C151.3 381.6 65.8333 360.833 33 346L36.5 356C116.1 389.6 196.333 370 226.5 356L230.5 346Z" fill="#5D2E23" stroke="black" stroke-width="0.6"/>
<path d="M4.58487 177.509C1.77504 255.634 9.76969 274.487 14.1182 274.148C136.146 310.362 224.856 286.186 253.958 269.57C260.38 258.584 264.662 203.279 266 177L263.491 177.509C165.548 204.364 50.0775 188.698 4.58487 177.509Z" fill="#58B7DA"/>
<path d="M3.50019 176C1.10019 156.8 8.83353 103.333 13.0002 79C96.6002 110.2 211.5 91 258.5 77.5C266.1 108.3 266.334 154.667 265.5 174C155.1 211.2 44.8335 190.833 3.50019 176Z" fill="#58B7DA"/>
<path d="M3.68164 179.788V169.288C124.482 205.688 228.348 184.455 265.182 169.288V179.788C140.382 214.988 38.8483 194.455 3.68164 179.788Z" fill="#6D4231" stroke="black" stroke-width="0.6"/>
<path d="M253.182 274.288L255.682 262.788C156.082 304.388 49.8483 282.122 9.18164 265.788L11.6816 278.288C138.882 311.488 225.682 289.455 253.182 274.288Z" fill="#6D4231" stroke="black" stroke-width="0.6"/>
<circle cx="128.5" cy="290.5" r="1.5" fill="black"/>
<circle cx="207.5" cy="283.5" r="1.5" fill="black"/>
<circle cx="46.5" cy="281.5" r="1.5" fill="#131313"/>
<circle cx="57.5" cy="188.5" r="1.5" fill="#131313"/>
<circle cx="207.5" cy="188.5" r="1.5" fill="#131313"/>
<circle cx="128.5" cy="194.5" r="1.5" fill="#131313"/>
<path d="M257.182 71.2883C153.182 106.088 51.8483 88.1217 14.1816 74.7883L12.1816 84.2883C92.5816 115.888 210.682 95.7883 259.682 81.7883L257.182 71.2883Z" fill="#77462F" stroke="black" stroke-width="0.6"/>
<circle cx="71.5" cy="92.5" r="1.5" fill="black"/>
<circle cx="129.5" cy="95.5" r="1.5" fill="black"/>
<circle cx="197.5" cy="90.5" r="1.5" fill="black"/>
<path d="M36.1821 354.288C-21.4179 229.888 8.84881 72.4549 31.1821 9.28825C63.5822 -3.51175 183.682 3.95491 239.682 9.28825C293.282 152.088 253.015 298.788 226.182 354.288C145.382 389.888 65.8488 369.122 36.1821 354.288Z" stroke="#5B3327" stroke-width="3"/>
<ellipse cx="129.5" cy="355" rx="125.5" ry="26" fill="#544F4F"/>
<ellipse cx="129.5" cy="355" rx="125.5" ry="26" fill="#544F4F"/>
<ellipse cx="129.5" cy="355" rx="125.5" ry="26" fill="#544F4F"/>
<path d="M13 78.281L28.5 17.4829C122.9 35.6729 209.5 24.0735 241 16C244.2 16.7909 253.667 55.873 258 75.3153C135.6 111.3 43.6667 92.286 13 78.281Z" fill="#9D8564" stroke="black"/>
<ellipse cx="71" cy="361" rx="2" ry="1" fill="black"/>
<path d="M50 16.3587C66.6453 9.2964 125.349 -0.590807 227 16.3587C199.972 25.1435 126.733 37.4422 50 16.3587Z" fill="#FDDC98" stroke="black" stroke-width="0.6"/>
<path d="M28 18.4617C117.809 41.1698 208.754 27.9234 243 18.4617L239.492 9C170.932 35.4928 71.9355 20.0386 31.007 9L28 18.4617Z" fill="#5B3327" stroke="black" stroke-width="0.6"/>
<path d="M55.5593 14C73.1017 8.83907 218.453 14 220.458 14L238 8.83908C119.313 -3.54715 50.5472 3.67815 31 8.83908L55.5593 14Z" fill="#FFE3A2" stroke="black" stroke-width="0.6"/>
<ellipse cx="195" cy="362.5" rx="1" ry="1.5" fill="black"/>
<ellipse cx="130" cy="370.5" rx="1" ry="1.5" fill="black"/>
<circle cx="74.5" cy="363.5" r="1.5" fill="black"/>
<path d="M253 272C148.349 299.009 48.7286 285.982 12 276.092C12 297.372 26.0877 331.678 33.1315 346.171C87.0672 385.456 185.748 365.268 228.347 350.263L253 272Z" fill="#58B7DA"/>
<path d="M229 344C150.001 381.405 64.7502 359.585 32 344L35.4911 354.507C114.89 389.811 194.92 369.217 225.01 354.507L229 344Z" fill="#5D2E23" stroke="black" stroke-width="0.6"/>
<path d="M4.58264 177.509C1.78353 255.634 9.74767 274.487 14.0796 274.148C135.641 310.362 224.013 286.186 253.004 269.57C259.402 258.584 263.667 203.279 265 177L262.501 177.509C164.932 204.364 49.9016 188.698 4.58264 177.509Z" fill="#58B7DA"/>
<path d="M2.45272 175.012C0.0507202 155.907 7.79048 102.705 11.9606 78.4926C95.6301 109.538 210.626 90.4331 257.665 77C265.271 107.647 265.505 153.784 264.671 173.022C154.179 210.037 43.8204 189.772 2.45272 175.012Z" fill="#58B7DA"/>
<path d="M3 179.172V169C123.569 204.262 227.237 183.693 264 169V179.172C139.439 213.271 38.0994 193.38 3 179.172Z" fill="#6D4231" stroke="black" stroke-width="0.6"/>
<path d="M252.505 273.56L255 262C155.602 303.816 49.5842 281.434 9 265.016L11.4949 277.581C138.437 310.953 225.061 288.805 252.505 273.56Z" fill="#6D4231" stroke="black" stroke-width="0.6"/>
<circle cx="128" cy="291" r="1" fill="black"/>
<ellipse cx="206" cy="283" rx="1" ry="2" fill="black"/>
<circle cx="46.5" cy="281.5" r="1.5" fill="#131313"/>
<circle cx="57" cy="188" r="2" fill="#131313"/>
<ellipse cx="206" cy="188" rx="1" ry="2" fill="#131313"/>
<ellipse cx="128" cy="194.5" rx="1" ry="1.5" fill="#131313"/>
<path d="M256.505 71C152.715 106.022 51.5865 87.9406 13.996 74.5223L12 84.0828C92.2376 115.884 210.099 95.6561 259 81.5669L256.505 71Z" fill="#77462F" stroke="black" stroke-width="0.6"/>
<ellipse cx="71" cy="93.5" rx="2" ry="1.5" fill="black"/>
<circle cx="129" cy="96" r="1" fill="black"/>
<ellipse cx="197" cy="90.5" rx="1" ry="1.5" fill="black"/>
<path d="M35.1719 353.382C-22.4103 229.224 7.84701 72.0974 30.1735 9.05377C62.5635 -3.72129 182.626 3.73083 238.609 9.05377C292.193 151.576 251.938 297.99 225.113 353.382C144.338 388.912 64.8294 368.186 35.1719 353.382Z" stroke="#5B3327" stroke-width="3"/>
</svg>
