<svg width="267" height="383" viewBox="0 0 267 383" fill="none" xmlns="http://www.w3.org/2000/svg">
<ellipse cx="134.5" cy="357" rx="125.5" ry="26" fill="#544F4F"/>
<circle cx="70.5" cy="361.5" r="1.5" fill="black"/>
<path d="M35.1821 354.288C-22.4179 229.888 7.84881 72.4549 30.1821 9.28825C62.5822 -3.51175 182.682 3.95491 238.682 9.28825C292.282 152.088 252.015 298.788 225.182 354.288C144.382 389.888 64.8488 369.122 35.1821 354.288Z" fill="#58B7DA" stroke="#5B3327" stroke-width="3"/>
<path d="M48.6816 15.7884C65.515 8.95511 124.882 -0.611558 227.682 15.7884C200.348 24.2884 126.282 36.1884 48.6816 15.7884Z" fill="#FDDC98" stroke="black" stroke-width="0.6"/>
<path d="M256.182 71.2883C152.182 106.088 50.8483 88.1217 13.1816 74.7883L11.1816 84.2883C91.5816 115.888 209.682 95.7883 258.682 81.7883L256.182 71.2883Z" fill="#77462F" stroke="black" stroke-width="0.6"/>
<path d="M2.68164 179.788V169.288C123.482 205.688 227.348 184.455 264.182 169.288V179.788C139.382 214.988 37.8483 194.455 2.68164 179.788Z" fill="#6D4231" stroke="black" stroke-width="0.6"/>
<path d="M252.182 274.288L254.682 262.788C155.082 304.388 48.8483 282.122 8.18164 265.788L10.6816 278.288C137.882 311.488 224.682 289.455 252.182 274.288Z" fill="#6D4231" stroke="black" stroke-width="0.6"/>
<path d="M229.5 346C150.3 381.6 64.8333 360.833 32 346L35.5 356C115.1 389.6 195.333 370 225.5 356L229.5 346Z" fill="#5D2E23" stroke="black" stroke-width="0.6"/>
<path d="M27.6816 18.2883C117.282 39.8883 208.015 27.2883 242.182 18.2883L238.682 9.28833C170.282 34.4883 71.515 19.7883 30.6816 9.28833L27.6816 18.2883Z" fill="#5B3327" stroke="black" stroke-width="0.6"/>
<path d="M55.1816 14.7884C72.6816 9.28839 217.682 14.7884 219.682 14.7884L237.182 9.2884C118.782 -3.9116 50.1816 3.7884 30.6816 9.2884L55.1816 14.7884Z" fill="#FFE3A2" stroke="#442516" stroke-width="1.5"/>
<circle cx="127.5" cy="194.5" r="1.5" fill="#131313"/>
<circle cx="127.5" cy="290.5" r="1.5" fill="black"/>
<circle cx="128.5" cy="95.5" r="1.5" fill="black"/>
<circle cx="70.5" cy="92.5" r="1.5" fill="black"/>
<circle cx="206.5" cy="283.5" r="1.5" fill="black"/>
<circle cx="45.5" cy="281.5" r="1.5" fill="#131313"/>
<circle cx="206.5" cy="188.5" r="1.5" fill="#131313"/>
<circle cx="56.5" cy="188.5" r="1.5" fill="#131313"/>
<circle cx="196.5" cy="90.5" r="1.5" fill="black"/>
<circle cx="70.5" cy="361.5" r="1.5" fill="black"/>
<path d="M35.1821 354.288C-22.4179 229.888 7.84881 72.4549 30.1821 9.28825C62.5822 -3.51175 182.682 3.95491 238.682 9.28825C292.282 152.088 252.015 298.788 225.182 354.288C144.382 389.888 64.8488 369.122 35.1821 354.288Z" fill="#58B7DA" stroke="#5B3327" stroke-width="3"/>
<path d="M48.6816 15.7884C65.515 8.95511 124.882 -0.611558 227.682 15.7884C200.348 24.2884 126.282 36.1884 48.6816 15.7884Z" fill="#FDDC98" stroke="black" stroke-width="0.6"/>
<path d="M256.182 71.2883C152.182 106.088 50.8483 88.1217 13.1816 74.7883L11.1816 84.2883C91.5816 115.888 209.682 95.7883 258.682 81.7883L256.182 71.2883Z" fill="#77462F" stroke="black" stroke-width="0.6"/>
<path d="M2.68164 179.788V169.288C123.482 205.688 227.348 184.455 264.182 169.288V179.788C139.382 214.988 37.8483 194.455 2.68164 179.788Z" fill="#6D4231" stroke="black" stroke-width="0.6"/>
<path d="M252.182 274.288L254.682 262.788C155.082 304.388 48.8483 282.122 8.18164 265.788L10.6816 278.288C137.882 311.488 224.682 289.455 252.182 274.288Z" fill="#6D4231" stroke="black" stroke-width="0.6"/>
<path d="M229.5 346C150.3 381.6 64.8333 360.833 32 346L35.5 356C115.1 389.6 195.333 370 225.5 356L229.5 346Z" fill="#5D2E23" stroke="black" stroke-width="0.6"/>
<path d="M27.6816 18.2883C117.282 39.8883 208.015 27.2883 242.182 18.2883L238.682 9.28833C170.282 34.4883 71.515 19.7883 30.6816 9.28833L27.6816 18.2883Z" fill="#5B3327" stroke="black" stroke-width="0.6"/>
<path d="M55.1816 14.7884C72.6816 9.28839 217.682 14.7884 219.682 14.7884L237.182 9.2884C118.782 -3.9116 50.1816 3.7884 30.6816 9.2884L55.1816 14.7884Z" fill="#FFE3A2" stroke="#442516" stroke-width="1.5"/>
<circle cx="127.5" cy="194.5" r="1.5" fill="#131313"/>
<circle cx="127.5" cy="290.5" r="1.5" fill="black"/>
<circle cx="128.5" cy="95.5" r="1.5" fill="black"/>
<circle cx="70.5" cy="92.5" r="1.5" fill="black"/>
<circle cx="206.5" cy="283.5" r="1.5" fill="black"/>
<circle cx="45.5" cy="281.5" r="1.5" fill="#131313"/>
<circle cx="206.5" cy="188.5" r="1.5" fill="#131313"/>
<circle cx="56.5" cy="188.5" r="1.5" fill="#131313"/>
<circle cx="196.5" cy="90.5" r="1.5" fill="black"/>
</svg>
