<svg width="238" height="320" viewBox="0 0 238 320" fill="none" xmlns="http://www.w3.org/2000/svg">
<path d="M196.426 211.116C196.426 211.116 220.968 207.591 228.899 207.591H234.054C235.024 207.591 235.954 207.977 236.64 208.662C237.326 209.348 237.711 210.278 237.711 211.248V213.628C237.711 214.598 237.326 215.528 236.64 216.214C235.954 216.9 235.024 217.285 234.054 217.285H196.426C195.456 217.285 194.526 216.9 193.84 216.214C193.154 215.528 192.769 214.598 192.769 213.628" fill="#3E4F66"/>
<path d="M192.769 226.097V235.791H220.968V226.097H192.769Z" fill="#3E4F66"/>
<path d="M225.832 211.997H218.747C217.054 211.997 215.681 213.37 215.681 215.064V241.536C215.681 243.23 217.054 244.603 218.747 244.603H225.832C227.526 244.603 228.899 243.23 228.899 241.536V215.064C228.899 213.37 227.526 211.997 225.832 211.997Z" fill="#3E4F66"/>
<path d="M202.242 66.5064V251.15C202.242 254.367 202.118 257.812 201.81 261.364C201.81 261.408 201.81 261.452 201.81 261.496C201.731 262.474 201.634 263.461 201.519 264.448C200.056 277.561 196.073 291.581 187.155 300.499C165.865 321.781 106.082 320.071 101.226 319.886H100.909V22.0308H178.898C181.346 22.1579 183.711 22.9634 185.727 24.3572C185.895 24.4542 186.054 24.5599 186.221 24.6744C188.768 26.4602 190.996 28.6617 192.813 31.1867C193.94 32.7164 194.948 34.3309 195.826 36.0159L196.003 36.3507C198.743 41.6381 200.902 48.6263 201.792 57.4209C202.083 60.2761 202.242 63.2899 202.242 66.5064Z" fill="#3E4F66"/>
<path d="M101.341 22.0396V319.895H101.174C97.5609 320.027 36.6327 322.028 15.0955 300.508C6.17742 291.59 2.19426 277.596 0.731422 264.457C0.652111 263.814 0.590429 263.161 0.528743 262.518C0.528743 262.183 0.467051 261.84 0.440615 261.505C0.123372 257.909 0 254.455 0 251.159V66.5152C0 63.2987 0.158621 60.2849 0.440615 57.465C1.32184 48.8113 3.41916 41.9377 6.10691 36.6503C6.20385 36.4476 6.30079 36.2538 6.40654 36.0599C7.28516 34.3749 8.29277 32.7604 9.42034 31.2308C11.1652 28.8083 13.2899 26.6837 15.7123 24.9388L16.0119 24.7185C18.1445 23.145 20.6891 22.2264 23.3349 22.0748H101.324L101.341 22.0396Z" fill="#3E4F66"/>
<path d="M100.02 34.3679C152.096 34.3679 194.312 26.6744 194.312 17.184C194.312 7.69353 152.096 0 100.02 0C47.9443 0 5.72852 7.69353 5.72852 17.184C5.72852 26.6744 47.9443 34.3679 100.02 34.3679Z" fill="#4E5F74"/>
<path d="M202.242 105.14V164.614C202.242 164.614 202.242 189.288 101.341 189.394H100.663C16.0648 189.394 2.25595 172.351 0 166.535V106.902C2.24713 112.568 16.056 129.92 100.663 129.92H101.341C202.242 129.805 202.242 105.14 202.242 105.14Z" fill="#6DC2C9"/>
<path d="M202.242 181.956V241.43C202.242 241.43 202.242 266.105 101.341 266.21H100.663C16.0648 266.21 2.25595 249.167 0 243.342V183.719C2.24713 189.385 16.056 206.71 100.663 206.71H101.341C202.242 206.622 202.242 181.956 202.242 181.956Z" fill="#6DC2C9"/>
<path d="M202.242 66.5064V87.3386C202.242 87.3386 202.242 112.013 101.341 112.119H100.663C16.0648 112.119 2.25595 95.0758 0 89.2597V66.5064C0 63.2899 0.158621 60.2761 0.440615 57.4562C1.32184 48.8025 3.41916 41.9289 6.10691 36.6415C15.8621 43.7707 40.1576 52.6447 100.663 52.6447H101.341C162.366 52.5742 186.477 43.5239 196.012 36.386C198.752 41.6734 200.911 48.6615 201.801 57.4562C202.083 60.2761 202.242 63.2899 202.242 66.5064Z" fill="#4E5F74"/>
<path d="M201.811 261.346C201.811 261.39 201.811 261.434 201.811 261.478C201.732 262.457 201.635 263.444 201.52 264.43C200.057 277.543 196.074 291.564 187.156 300.482C165.865 321.763 106.083 320.054 101.227 319.869H101.183C97.5702 320.001 36.642 322.001 15.1048 300.482C6.18676 291.564 2.20361 277.57 0.740765 264.43C0.661454 263.787 0.599772 263.135 0.538086 262.492C4.12469 269.013 21.0355 284.39 100.672 284.39H101.351C185.887 284.311 199.59 266.977 201.811 261.346Z" fill="#6DC2C9"/>
<path d="M41.7522 20.2684C52.0311 20.2684 60.3637 18.7494 60.3637 16.8756C60.3637 15.0019 52.0311 13.4829 41.7522 13.4829C31.4733 13.4829 23.1406 15.0019 23.1406 16.8756C23.1406 18.7494 31.4733 20.2684 41.7522 20.2684Z" fill="#3E4F66"/>
</svg>
