<svg width="267" height="384" viewBox="0 0 267 384" fill="none" xmlns="http://www.w3.org/2000/svg">
<ellipse cx="131.5" cy="358" rx="125.5" ry="26" fill="#544F4F"/>
<path d="M3.58487 175.509C0.775036 253.634 8.76969 272.487 13.1182 272.148C135.146 308.362 223.856 284.186 252.958 267.57C259.38 256.584 263.662 201.279 265 175L262.491 175.509C164.548 202.364 49.0775 186.698 3.58487 175.509Z" fill="#9D8564"/>
<path d="M3.45234 178.5C1.05234 159.3 8.78567 105.833 12.9523 81.5C96.5523 112.7 211.452 93.5 258.452 80C266.052 110.8 266.286 157.167 265.452 176.5C155.052 213.7 44.7857 193.333 3.45234 178.5Z" fill="#9D8564"/>
<path d="M13 78L28.5 16.5C122.9 34.9 209.5 23.1667 241 15C244.2 15.8 253.667 55.3333 258 75C135.6 111.4 43.6667 92.1667 13 78Z" fill="#9D8564" stroke="black"/>
<circle cx="70.5" cy="361.5" r="1.5" fill="black"/>
<path d="M48.6821 15.7884C65.5155 8.95511 124.882 -0.611558 227.682 15.7884C200.349 24.2884 126.282 36.1884 48.6821 15.7884Z" fill="#FDDC98" stroke="black" stroke-width="0.6"/>
<path d="M2.68213 179.788V169.288C123.482 205.688 227.349 184.455 264.182 169.288V179.788C139.382 214.988 37.8488 194.455 2.68213 179.788Z" fill="#6D4231" stroke="black" stroke-width="0.6"/>
<path d="M55.1821 14.7884C72.6821 9.28839 217.682 14.7884 219.682 14.7884L237.182 9.2884C118.782 -3.9116 50.1821 3.7884 30.6821 9.2884L55.1821 14.7884Z" fill="#FFE3A2" stroke="black" stroke-width="0.6"/>
<path d="M253 271C147.914 298.287 47.881 285.126 11 275.134C11 296.633 25.1461 331.293 32.2192 345.936C86.3787 385.626 185.469 365.23 228.244 350.07L253 271Z" fill="#58B7DA"/>
<path d="M252.182 274.288L254.682 262.788C155.082 304.388 48.8488 282.122 8.18213 265.788L10.6821 278.288C137.882 311.488 224.682 289.455 252.182 274.288Z" fill="#6D4231" stroke="black" stroke-width="0.6"/>
<path d="M229.5 346C150.3 381.6 64.8333 360.833 32 346L35.5 356C115.1 389.6 195.333 370 225.5 356L229.5 346Z" fill="#5D2E23" stroke="black" stroke-width="0.6"/>
<path d="M35.1821 354.288C-22.4179 229.888 7.84881 72.4549 30.1821 9.28825C62.5822 -3.51175 182.682 3.95491 238.682 9.28825C292.282 152.088 252.015 298.788 225.182 354.288C144.382 389.888 64.8488 369.122 35.1821 354.288Z" stroke="#5B3327" stroke-width="3"/>
<circle cx="127.5" cy="194.5" r="1.5" fill="#131313"/>
<circle cx="127.5" cy="290.5" r="1.5" fill="black"/>
<circle cx="128.5" cy="95.5" r="1.5" fill="black"/>
<circle cx="70.5" cy="92.5" r="1.5" fill="black"/>
<circle cx="206.5" cy="283.5" r="1.5" fill="black"/>
<circle cx="45.5" cy="281.5" r="1.5" fill="#131313"/>
<circle cx="206.5" cy="188.5" r="1.5" fill="#131313"/>
<circle cx="56.5" cy="188.5" r="1.5" fill="#131313"/>
<circle cx="196.5" cy="90.5" r="1.5" fill="black"/>
<path d="M256.182 71.2883C152.182 106.088 50.8488 88.1217 13.1821 74.7883L11.1821 84.2883C91.5821 115.888 209.682 95.7883 258.682 81.7883L256.182 71.2883Z" fill="#77462F" stroke="black" stroke-width="0.6"/>
<path d="M27.6821 18.2883C117.282 39.8883 208.015 27.2883 242.182 18.2883L238.682 9.28833C170.282 34.4883 71.5155 19.7883 30.6821 9.28833L27.6821 18.2883Z" fill="#5B3327" stroke="black" stroke-width="0.6"/>
<path d="M3.58487 175.509C0.775036 253.634 8.76969 272.487 13.1182 272.148C135.146 308.362 223.856 284.186 252.958 267.57C259.38 256.584 263.662 201.279 265 175L262.491 175.509C164.548 202.364 49.0775 186.698 3.58487 175.509Z" fill="#9D8564"/>
<path d="M3.45234 178.5C1.05234 159.3 8.78567 105.833 12.9523 81.5C96.5523 112.7 211.452 93.5 258.452 80C266.052 110.8 266.286 157.167 265.452 176.5C155.052 213.7 44.7857 193.333 3.45234 178.5Z" fill="#9D8564"/>
<path d="M13 78L28.5 16.5C122.9 34.9 209.5 23.1667 241 15C244.2 15.8 253.667 55.3333 258 75C135.6 111.4 43.6667 92.1667 13 78Z" fill="#9D8564" stroke="black"/>
<circle cx="70.5" cy="361.5" r="1.5" fill="black"/>
<path d="M48.6821 15.7884C65.5155 8.95511 124.882 -0.611558 227.682 15.7884C200.349 24.2884 126.282 36.1884 48.6821 15.7884Z" fill="#FDDC98" stroke="black" stroke-width="0.6"/>
<path d="M2.68213 179.788V169.288C123.482 205.688 227.349 184.455 264.182 169.288V179.788C139.382 214.988 37.8488 194.455 2.68213 179.788Z" fill="#6D4231" stroke="black" stroke-width="0.6"/>
<path d="M55.1821 14.7884C72.6821 9.28839 217.682 14.7884 219.682 14.7884L237.182 9.2884C118.782 -3.9116 50.1821 3.7884 30.6821 9.2884L55.1821 14.7884Z" fill="#FFE3A2" stroke="black" stroke-width="0.6"/>
<path d="M253 271C147.914 298.287 47.881 285.126 11 275.134C11 296.633 25.1461 331.293 32.2192 345.936C86.3787 385.626 185.469 365.23 228.244 350.07L253 271Z" fill="#58B7DA"/>
<path d="M252.182 274.288L254.682 262.788C155.082 304.388 48.8488 282.122 8.18213 265.788L10.6821 278.288C137.882 311.488 224.682 289.455 252.182 274.288Z" fill="#6D4231" stroke="black" stroke-width="0.6"/>
<path d="M229.5 346C150.3 381.6 64.8333 360.833 32 346L35.5 356C115.1 389.6 195.333 370 225.5 356L229.5 346Z" fill="#5D2E23" stroke="black" stroke-width="0.6"/>
<path d="M35.1821 354.288C-22.4179 229.888 7.84881 72.4549 30.1821 9.28825C62.5822 -3.51175 182.682 3.95491 238.682 9.28825C292.282 152.088 252.015 298.788 225.182 354.288C144.382 389.888 64.8488 369.122 35.1821 354.288Z" stroke="#5B3327" stroke-width="3"/>
<circle cx="127.5" cy="194.5" r="1.5" fill="#131313"/>
<circle cx="127.5" cy="290.5" r="1.5" fill="black"/>
<path d="M256.182 71.2883C152.182 106.088 50.8488 88.1217 13.1821 74.7883L11.1821 84.2883C91.5821 115.888 209.682 95.7883 258.682 81.7883L256.182 71.2883Z" fill="#77462F" stroke="black" stroke-width="0.6"/>
<path d="M27.6821 18.2883C117.282 39.8883 208.015 27.2883 242.182 18.2883L238.682 9.28833C170.282 34.4883 71.5155 19.7883 30.6821 9.28833L27.6821 18.2883Z" fill="#5B3327" stroke="black" stroke-width="0.6"/>
<circle cx="128.5" cy="95.5" r="1.5" fill="black"/>
<circle cx="70.5" cy="92.5" r="1.5" fill="black"/>
<circle cx="206.5" cy="283.5" r="1.5" fill="black"/>
<circle cx="45.5" cy="281.5" r="1.5" fill="#131313"/>
<circle cx="206.5" cy="188.5" r="1.5" fill="#131313"/>
<circle cx="56.5" cy="188.5" r="1.5" fill="#131313"/>
<circle cx="196.5" cy="90.5" r="1.5" fill="black"/>
</svg>
