<svg width="267" height="383" viewBox="0 0 267 383" fill="none" xmlns="http://www.w3.org/2000/svg">
<ellipse cx="128.5" cy="357" rx="125.5" ry="26" fill="#544F4F"/>
<path d="M2.45234 177.5C0.0523397 158.3 7.78567 104.833 11.9523 80.5C95.5523 111.7 210.452 92.5 257.452 79C265.052 109.8 265.286 156.167 264.452 175.5C154.052 212.7 43.7857 192.333 2.45234 177.5Z" fill="#9D8564"/>
<path d="M13 79L28.5 17.5C122.9 35.9 209.5 24.1667 241 16C244.2 16.8 253.667 56.3333 258 76C135.6 112.4 43.6667 93.1667 13 79Z" fill="#9D8564" stroke="black"/>
<circle cx="70.5" cy="92.5" r="1.5" fill="black"/>
<circle cx="196.5" cy="90.5" r="1.5" fill="black"/>
<circle cx="73.5" cy="364.5" r="1.5" fill="black"/>
<path d="M254 272C148.914 299.287 48.881 286.126 12 276.134C12 297.633 26.1461 332.293 33.2192 346.936C87.3787 386.626 186.469 366.23 229.244 351.07L254 272Z" fill="#58B7DA"/>
<path d="M229.5 346C150.3 381.6 64.8333 360.833 32 346L35.5 356C115.1 389.6 195.333 370 225.5 356L229.5 346Z" fill="#5D2E23" stroke="black" stroke-width="0.6"/>
<path d="M3.58487 177.509C0.775036 255.634 8.76969 274.487 13.1182 274.148C135.146 310.362 223.856 286.186 252.958 269.57C259.38 258.584 263.662 203.279 265 177L262.491 177.509C164.548 204.364 49.0775 188.698 3.58487 177.509Z" fill="#58B7DA"/>
<path d="M2.68164 179.788V169.288C123.482 205.688 227.348 184.455 264.182 169.288V179.788C139.382 214.988 37.8483 194.455 2.68164 179.788Z" fill="#6D4231" stroke="black" stroke-width="0.6"/>
<path d="M35.1821 354.288C-22.4179 229.888 7.84881 72.4549 30.1821 9.28825C62.5822 -3.51175 182.682 3.95491 238.682 9.28825C292.282 152.088 252.015 298.788 225.182 354.288C144.382 389.888 64.8488 369.122 35.1821 354.288Z" stroke="#5B3327" stroke-width="3"/>
<path d="M253 265C150.6 309.4 47.333 285.167 8.49971 267.5C-9.10029 147.1 15.833 49 30.4997 15C136.1 36.6 212.833 24 238 15C277.6 106.2 264.5 219.667 253 265Z" stroke="black"/>
<path d="M252.182 274.288L254.682 262.788C155.082 304.388 48.8483 282.122 8.18164 265.788L10.6816 278.288C137.882 311.488 224.682 289.455 252.182 274.288Z" fill="#6D4231" stroke="black" stroke-width="0.6"/>
<circle cx="127.5" cy="290.5" r="1.5" fill="black"/>
<circle cx="206.5" cy="283.5" r="1.5" fill="black"/>
<circle cx="45.5" cy="281.5" r="1.5" fill="#131313"/>
<circle cx="56.5" cy="188.5" r="1.5" fill="#131313"/>
<circle cx="206.5" cy="188.5" r="1.5" fill="#131313"/>
<circle cx="127.5" cy="194.5" r="1.5" fill="#131313"/>
<path d="M48.6816 15.7884C65.515 8.95511 124.882 -0.611558 227.682 15.7884C200.348 24.2884 126.282 36.1884 48.6816 15.7884Z" fill="#FDDC98" stroke="black" stroke-width="0.6"/>
<path d="M256.182 71.2883C152.182 106.088 50.8483 88.1217 13.1816 74.7883L11.1816 84.2883C91.5816 115.888 209.682 95.7883 258.682 81.7883L256.182 71.2883Z" fill="#77462F" stroke="black" stroke-width="0.6"/>
<path d="M27.6816 18.2883C117.282 39.8883 208.015 27.2883 242.182 18.2883L238.682 9.28833C170.282 34.4883 71.515 19.7883 30.6816 9.28833L27.6816 18.2883Z" fill="#5B3327" stroke="black" stroke-width="0.6"/>
<path d="M55.1816 14.7884C72.6816 9.28839 217.682 14.7884 219.682 14.7884L237.182 9.2884C118.782 -3.9116 50.1816 3.7884 30.6816 9.2884L55.1816 14.7884Z" fill="#FFE3A2" stroke="black" stroke-width="0.6"/>
<circle cx="128.5" cy="95.5" r="1.5" fill="black"/>
<path d="M2.45234 177.5C0.0523397 158.3 7.78567 104.833 11.9523 80.5C95.5523 111.7 210.452 92.5 257.452 79C265.052 109.8 265.286 156.167 264.452 175.5C154.052 212.7 43.7857 192.333 2.45234 177.5Z" fill="#9D8564"/>
<path d="M13 79L28.5 17.5C122.9 35.9 209.5 24.1667 241 16C244.2 16.8 253.667 56.3333 258 76C135.6 112.4 43.6667 93.1667 13 79Z" fill="#9D8564" stroke="black"/>
<circle cx="73.5" cy="364.5" r="1.5" fill="black"/>
<path d="M254 272C148.914 299.287 48.881 286.126 12 276.134C12 297.633 26.1461 332.293 33.2192 346.936C87.3787 386.626 186.469 366.23 229.244 351.07L254 272Z" fill="#58B7DA"/>
<path d="M229.5 346C150.3 381.6 64.8333 360.833 32 346L35.5 356C115.1 389.6 195.333 370 225.5 356L229.5 346Z" fill="#5D2E23" stroke="black" stroke-width="0.6"/>
<path d="M3.58487 177.509C0.775036 255.634 8.76969 274.487 13.1182 274.148C135.146 310.362 223.856 286.186 252.958 269.57C259.38 258.584 263.662 203.279 265 177L262.491 177.509C164.548 204.364 49.0775 188.698 3.58487 177.509Z" fill="#58B7DA"/>
<path d="M2.68164 179.788V169.288C123.482 205.688 227.348 184.455 264.182 169.288V179.788C139.382 214.988 37.8483 194.455 2.68164 179.788Z" fill="#6D4231" stroke="black" stroke-width="0.6"/>
<path d="M35.1821 354.288C-22.4179 229.888 7.84881 72.4549 30.1821 9.28825C62.5822 -3.51175 182.682 3.95491 238.682 9.28825C292.282 152.088 252.015 298.788 225.182 354.288C144.382 389.888 64.8488 369.122 35.1821 354.288Z" stroke="#5B3327" stroke-width="3"/>
<path d="M253 265C150.6 309.4 47.333 285.167 8.49971 267.5C-9.10029 147.1 15.833 49 30.4997 15C136.1 36.6 212.833 24 238 15C277.6 106.2 264.5 219.667 253 265Z" stroke="black"/>
<path d="M252.182 274.288L254.682 262.788C155.082 304.388 48.8483 282.122 8.18164 265.788L10.6816 278.288C137.882 311.488 224.682 289.455 252.182 274.288Z" fill="#6D4231" stroke="black" stroke-width="0.6"/>
<circle cx="127.5" cy="290.5" r="1.5" fill="black"/>
<circle cx="206.5" cy="283.5" r="1.5" fill="black"/>
<circle cx="45.5" cy="281.5" r="1.5" fill="#131313"/>
<circle cx="56.5" cy="188.5" r="1.5" fill="#131313"/>
<circle cx="206.5" cy="188.5" r="1.5" fill="#131313"/>
<circle cx="127.5" cy="194.5" r="1.5" fill="#131313"/>
<path d="M48.6816 15.7884C65.515 8.95511 124.882 -0.611558 227.682 15.7884C200.348 24.2884 126.282 36.1884 48.6816 15.7884Z" fill="#FDDC98" stroke="black" stroke-width="0.6"/>
<path d="M256.182 71.2883C152.182 106.088 50.8483 88.1217 13.1816 74.7883L11.1816 84.2883C91.5816 115.888 209.682 95.7883 258.682 81.7883L256.182 71.2883Z" fill="#77462F" stroke="black" stroke-width="0.6"/>
<path d="M27.6816 18.2883C117.282 39.8883 208.015 27.2883 242.182 18.2883L238.682 9.28833C170.282 34.4883 71.515 19.7883 30.6816 9.28833L27.6816 18.2883Z" fill="#5B3327" stroke="black" stroke-width="0.6"/>
<path d="M55.1816 14.7884C72.6816 9.28839 217.682 14.7884 219.682 14.7884L237.182 9.2884C118.782 -3.9116 50.1816 3.7884 30.6816 9.2884L55.1816 14.7884Z" fill="#FFE3A2" stroke="black" stroke-width="0.6"/>
<circle cx="128.5" cy="95.5" r="1.5" fill="black"/>
<circle cx="70.5" cy="92.5" r="1.5" fill="black"/>
<circle cx="196.5" cy="90.5" r="1.5" fill="black"/>
<circle cx="168.5" cy="23.5" r="1.5" fill="#131313"/>
<circle cx="168.5" cy="23.5" r="1.5" fill="#131313"/>
<circle cx="168.5" cy="23.5" r="1.5" fill="#131313"/>
</svg>
