<?xml version="1.0" encoding="utf-8"?>
<!-- Generator: Adobe Illustrator 27.2.0, SVG Export Plug-In . SVG Version: 6.00 Build 0)  -->
<svg version="1.1" id="Layer_1" xmlns="http://www.w3.org/2000/svg" xmlns:xlink="http://www.w3.org/1999/xlink" x="0px" y="0px"
	 viewBox="0 0 150 150" style="enable-background:new 0 0 150 150;" xml:space="preserve">
<style type="text/css">
	.st0{opacity:0;}
	.st1{fill:#3F4F66;}
	.st2{fill:#4F6075;fill-opacity:0;}
	.st3{clip-path:url(#SVGID_00000057865150669626568620000000444091997954722728_);fill:#3F4F66;}
	.st4{fill:#4F6075;}
</style>
<g class="st0">
	<g>
		<rect x="101.3" y="95.3" class="st1" width="7.2" height="2.6"/>
		<path class="st1" d="M107.9,91.7H106c-0.5,0-0.9,0.4-0.9,0.9v6.7c0,0.5,0.4,0.9,0.9,0.9h1.9c0.5,0,0.9-0.4,0.9-0.9v-6.7
			C108.8,92.1,108.4,91.7,107.9,91.7z"/>
	</g>
	<path class="st1" d="M111,93.1c0.5,0,1-0.2,1.2-0.7c0.2-0.4,0.2-0.9,0-1.2c-0.1-0.2-0.3-0.3-0.7-0.5c-0.8-0.4-1.6-0.4-1.7-0.4
		c-1.3,0-2.4,0.1-3.1,0.1c-2.6,0.3-3,0.3-3.9,0.5c-0.7,0.2-1.3,0.3-1.6,0.5c-0.8,0.3-0.9,0.5-0.9,0.6c0,0.4,2,0.6,5.1,0.9
		c1.6,0.1,2.6,0.2,3.4,0.2C109.6,93.2,110.4,93.2,111,93.1z"/>
</g>
<path class="st2" d="M101.6,51.2c-0.2-2.4-0.8-4.2-1.6-5.7v-0.1c-0.2-0.5-0.5-0.9-0.8-1.3c-0.5-0.7-1.1-1.3-1.8-1.7l-0.1-0.1
	c-0.6-0.4-1.2-0.6-1.9-0.6H73.7l0,0H53.2c-0.7,0-1.4,0.3-2,0.7l-0.1,0.1c-0.7,0.5-1.2,1-1.7,1.7c-0.3,0.4-0.6,0.8-0.8,1.3
	c0,0.1-0.1,0.1-0.1,0.2c-0.7,1.4-1.3,3.3-1.5,5.6c-0.1,0.8-0.1,1.6-0.1,2.4v49.6c0,0.9,0,1.8,0.1,2.8c0,0.1,0,0.2,0,0.3
	c0,0.2,0,0.3,0.1,0.5c0.4,3.5,1.5,7.3,3.9,9.7c5.6,5.6,21.2,5.3,23.1,5.2c2.4,0.1,17.8,0.3,23.5-5.2c2.5-2.4,3.6-6.2,4-9.7
	c0-0.3,0.1-0.5,0.1-0.8l0,0c0.1-1,0.1-1.9,0.1-2.7V53.6C101.7,52.8,101.7,52,101.6,51.2z"/>
<g>
	<g>
		<defs>
			<path id="SVGID_1_" d="M101.6,23.4c-0.2-2.4-0.8-4.2-1.6-5.7v-0.1c-0.2-0.5-0.5-0.9-0.8-1.3c-0.5-0.7-1.1-1.3-1.8-1.7l-0.1-0.1
				c-0.6-0.4-1.2-0.6-1.9-0.6H73.7l0,0H53.2c-0.7,0-1.4,0.3-2,0.7l-0.1,0.1c-0.7,0.5-1.2,1-1.7,1.7c-0.3,0.4-0.6,0.8-0.8,1.3
				c0,0.1-0.1,0.1-0.1,0.2c-0.7,1.4-1.3,3.3-1.5,5.6c-0.1,0.8-0.1,1.6-0.1,2.4v49.6c0,0.9,0,1.8,0.1,2.8c0,0.1,0,0.2,0,0.3
				c0,0.2,0,0.3,0.1,0.5c0.4,3.5,1.5,7.3,3.9,9.7c5.6,5.6,21.2,5.3,23.1,5.2c2.4,0.1,17.8,0.3,23.5-5.2c2.5-2.4,3.6-6.2,4-9.7
				c0-0.3,0.1-0.5,0.1-0.8l0,0c0.1-1,0.1-1.9,0.1-2.7V25.8C101.7,25,101.7,24.2,101.6,23.4z"/>
		</defs>
		<clipPath id="SVGID_00000140730194832851736330000009736232963265524912_">
			<use xlink:href="#SVGID_1_"  style="overflow:visible;"/>
		</clipPath>
		<path style="clip-path:url(#SVGID_00000140730194832851736330000009736232963265524912_);fill:#3F4F66;" d="M112.9,74.5
			c-7.6,3.2-20.9,7.6-38,7.6c-17,0-30.3-4.4-37.9-7.6c0-1.8,0-3.6,0-5.4c8,3.1,21.1,7.1,37.8,7.1c16.8,0,30.1-4,38.1-7.1
			C112.9,70.9,112.9,72.7,112.9,74.5z"/>
	</g>
</g>
<g class="st0">
	<path class="st4" d="M74.1,44.8c14,0,25.4-2.1,25.4-4.6c0-2.6-11.4-4.6-25.4-4.6s-25.4,2.1-25.4,4.6C48.7,42.8,60.1,44.8,74.1,44.8
		z"/>
	<path class="st1" d="M58.4,41c2.8,0,5-0.4,5-0.9s-2.2-0.9-5-0.9s-5,0.4-5,0.9S55.6,41,58.4,41z"/>
</g>
</svg>
