<?xml version="1.0" encoding="utf-8"?>
<!-- Generator: Adobe Illustrator 27.2.0, SVG Export Plug-In . SVG Version: 6.00 Build 0)  -->
<svg version="1.1" id="Layer_1" xmlns="http://www.w3.org/2000/svg" xmlns:xlink="http://www.w3.org/1999/xlink" x="0px" y="0px"
	 viewBox="0 0 150 150" style="enable-background:new 0 0 150 150;" xml:space="preserve">
<style type="text/css">
	.st0{opacity:0;}
	.st1{fill:#3F4F66;}
	.st2{opacity:0;fill:#4F6075;}
	.st3{clip-path:url(#SVGID_00000041978736535181025610000010450645676671000962_);fill:#3F4F66;}
	.st4{clip-path:url(#SVGID_00000057136961654825919300000016346413219683399828_);fill:#3F4F66;}
	.st5{clip-path:url(#SVGID_00000064347443289319098460000016796358913348177321_);fill:#3F4F66;}
	.st6{clip-path:url(#SVGID_00000173859559233776055960000007478624115924117380_);fill:#3F4F66;}
	.st7{fill:#4F6075;}
</style>
<g class="st0">
	<g>
		<rect x="101.3" y="95.3" class="st1" width="7.2" height="2.6"/>
		<path class="st1" d="M107.9,91.7h-1.9c-0.5,0-0.9,0.4-0.9,0.9v6.7c0,0.5,0.4,0.9,0.9,0.9h1.9c0.5,0,0.9-0.4,0.9-0.9v-6.7
			C108.8,92.1,108.4,91.7,107.9,91.7z"/>
	</g>
	<path class="st1" d="M111,93.1c0.5,0,1-0.2,1.2-0.7c0.2-0.4,0.2-0.9,0-1.2c-0.1-0.2-0.3-0.3-0.7-0.5c-0.8-0.4-1.6-0.4-1.7-0.4
		c-1.3,0-2.4,0.1-3.1,0.1c-2.6,0.3-3,0.3-3.9,0.5c-0.7,0.2-1.3,0.3-1.6,0.5c-0.8,0.3-0.9,0.5-0.9,0.6c0,0.4,2,0.6,5.1,0.9
		c1.6,0.1,2.6,0.2,3.4,0.2C109.6,93.2,110.4,93.2,111,93.1z"/>
</g>
<path class="st2" d="M101.6,51.2c-0.2-2.4-0.8-4.2-1.6-5.7l0-0.1c-0.2-0.5-0.5-0.9-0.8-1.3c-0.5-0.7-1.1-1.3-1.8-1.7
	c0,0-0.1-0.1-0.1-0.1c-0.6-0.4-1.2-0.6-1.9-0.6H73.7v0H53.2c-0.7,0-1.4,0.3-2,0.7l-0.1,0.1c-0.7,0.5-1.2,1-1.7,1.7
	c-0.3,0.4-0.6,0.8-0.8,1.3c0,0.1-0.1,0.1-0.1,0.2c-0.7,1.4-1.3,3.3-1.5,5.6c-0.1,0.8-0.1,1.6-0.1,2.4v49.6c0,0.9,0,1.8,0.1,2.8
	c0,0.1,0,0.2,0,0.3c0,0.2,0,0.3,0.1,0.5c0.4,3.5,1.5,7.3,3.9,9.7c5.6,5.6,21.2,5.3,23.1,5.2c2.4,0.1,17.8,0.3,23.5-5.2
	c2.5-2.4,3.6-6.2,4-9.7c0-0.3,0.1-0.5,0.1-0.8c0,0,0,0,0,0c0.1-1,0.1-1.9,0.1-2.7V53.6C101.7,52.8,101.7,52,101.6,51.2z"/>
<g>
	<defs>
		<path id="SVGID_1_" d="M101.6,51.2c-0.2-2.4-0.8-4.2-1.6-5.7l0-0.1c-0.2-0.5-0.5-0.9-0.8-1.3c-0.5-0.7-1.1-1.3-1.8-1.7
			c0,0-0.1-0.1-0.1-0.1c-0.6-0.4-1.2-0.6-1.9-0.6H73.7v0H53.2c-0.7,0-1.4,0.3-2,0.7l-0.1,0.1c-0.7,0.5-1.2,1-1.7,1.7
			c-0.3,0.4-0.6,0.8-0.8,1.3c0,0.1-0.1,0.1-0.1,0.2c-0.7,1.4-1.3,3.3-1.5,5.6c-0.1,0.8-0.1,1.6-0.1,2.4v49.6c0,0.9,0,1.8,0.1,2.8
			c0,0.1,0,0.2,0,0.3c0,0.2,0,0.3,0.1,0.5c0.4,3.5,1.5,7.3,3.9,9.7c5.6,5.6,21.2,5.3,23.1,5.2c2.4,0.1,17.8,0.3,23.5-5.2
			c2.5-2.4,3.6-6.2,4-9.7c0-0.3,0.1-0.5,0.1-0.8c0,0,0,0,0,0c0.1-1,0.1-1.9,0.1-2.7V53.6C101.7,52.8,101.7,52,101.6,51.2z"/>
	</defs>
	<clipPath id="SVGID_00000057846387364688826830000010743963355217227173_">
		<use xlink:href="#SVGID_1_"  style="overflow:visible;"/>
	</clipPath>
	<path style="clip-path:url(#SVGID_00000057846387364688826830000010743963355217227173_);fill:#3F4F66;" d="M112.9,102.3
		c-7.6,3.2-20.9,7.6-38,7.6c-17,0-30.3-4.4-37.9-7.6c0-1.8,0-3.6,0-5.4c8,3.1,21.1,7.1,37.8,7.1c16.8,0,30.1-4,38.1-7.1
		C112.9,98.7,112.9,100.5,112.9,102.3z"/>
</g>
<g>
	<defs>
		<path id="SVGID_00000163033330664389224450000008657976470917293480_" d="M101.6,51.2c-0.2-2.4-0.8-4.2-1.6-5.7l0-0.1
			c-0.2-0.5-0.5-0.9-0.8-1.3c-0.5-0.7-1.1-1.3-1.8-1.7c0,0-0.1-0.1-0.1-0.1c-0.6-0.4-1.2-0.6-1.9-0.6H73.7v0H53.2
			c-0.7,0-1.4,0.3-2,0.7l-0.1,0.1c-0.7,0.5-1.2,1-1.7,1.7c-0.3,0.4-0.6,0.8-0.8,1.3c0,0.1-0.1,0.1-0.1,0.2c-0.7,1.4-1.3,3.3-1.5,5.6
			c-0.1,0.8-0.1,1.6-0.1,2.4v49.6c0,0.9,0,1.8,0.1,2.8c0,0.1,0,0.2,0,0.3c0,0.2,0,0.3,0.1,0.5c0.4,3.5,1.5,7.3,3.9,9.7
			c5.6,5.6,21.2,5.3,23.1,5.2c2.4,0.1,17.8,0.3,23.5-5.2c2.5-2.4,3.6-6.2,4-9.7c0-0.3,0.1-0.5,0.1-0.8c0,0,0,0,0,0
			c0.1-1,0.1-1.9,0.1-2.7V53.6C101.7,52.8,101.7,52,101.6,51.2z"/>
	</defs>
	<clipPath id="SVGID_00000108991305503693501080000001134386754898201750_">
		<use xlink:href="#SVGID_00000163033330664389224450000008657976470917293480_"  style="overflow:visible;"/>
	</clipPath>
	<path style="clip-path:url(#SVGID_00000108991305503693501080000001134386754898201750_);fill:#3F4F66;" d="M112.9,83.6
		c-7.6,3.2-20.9,7.6-38,7.6c-17,0-30.3-4.4-37.9-7.6c0-1.8,0-3.6,0-5.4c8,3.1,21.1,7.1,37.8,7.1c16.8,0,30.1-4,38.1-7.1
		C112.9,79.9,112.9,81.8,112.9,83.6z"/>
</g>
<g>
	<defs>
		<path id="SVGID_00000106829068077859169790000003796674374324261553_" d="M101.6,51.2c-0.2-2.4-0.8-4.2-1.6-5.7l0-0.1
			c-0.2-0.5-0.5-0.9-0.8-1.3c-0.5-0.7-1.1-1.3-1.8-1.7c0,0-0.1-0.1-0.1-0.1c-0.6-0.4-1.2-0.6-1.9-0.6H73.7v0H53.2
			c-0.7,0-1.4,0.3-2,0.7l-0.1,0.1c-0.7,0.5-1.2,1-1.7,1.7c-0.3,0.4-0.6,0.8-0.8,1.3c0,0.1-0.1,0.1-0.1,0.2c-0.7,1.4-1.3,3.3-1.5,5.6
			c-0.1,0.8-0.1,1.6-0.1,2.4v49.6c0,0.9,0,1.8,0.1,2.8c0,0.1,0,0.2,0,0.3c0,0.2,0,0.3,0.1,0.5c0.4,3.5,1.5,7.3,3.9,9.7
			c5.6,5.6,21.2,5.3,23.1,5.2c2.4,0.1,17.8,0.3,23.5-5.2c2.5-2.4,3.6-6.2,4-9.7c0-0.3,0.1-0.5,0.1-0.8c0,0,0,0,0,0
			c0.1-1,0.1-1.9,0.1-2.7V53.6C101.7,52.8,101.7,52,101.6,51.2z"/>
	</defs>
	<clipPath id="SVGID_00000008112557725370782440000008466932136836216765_">
		<use xlink:href="#SVGID_00000106829068077859169790000003796674374324261553_"  style="overflow:visible;"/>
	</clipPath>
	<path style="clip-path:url(#SVGID_00000008112557725370782440000008466932136836216765_);fill:#3F4F66;" d="M112.9,64.9
		c-7.6,3.2-20.9,7.6-38,7.6c-17,0-30.3-4.4-37.9-7.6c0-1.8,0-3.6,0-5.4c8,3.1,21.1,7.1,37.8,7.1c16.8,0,30.1-4,38.1-7.1
		C112.9,61.2,112.9,63,112.9,64.9z"/>
</g>
<g>
	<defs>
		<path id="SVGID_00000097460814553683424460000008249921709479778981_" d="M101.6,51.2c-0.2-2.4-0.8-4.2-1.6-5.7l0-0.1
			c-0.2-0.5-0.5-0.9-0.8-1.3c-0.5-0.7-1.1-1.3-1.8-1.7c0,0-0.1-0.1-0.1-0.1c-0.6-0.4-1.2-0.6-1.9-0.6H73.7v0H53.2
			c-0.7,0-1.4,0.3-2,0.7l-0.1,0.1c-0.7,0.5-1.2,1-1.7,1.7c-0.3,0.4-0.6,0.8-0.8,1.3c0,0.1-0.1,0.1-0.1,0.2c-0.7,1.4-1.3,3.3-1.5,5.6
			c-0.1,0.8-0.1,1.6-0.1,2.4v49.6c0,0.9,0,1.8,0.1,2.8c0,0.1,0,0.2,0,0.3c0,0.2,0,0.3,0.1,0.5c0.4,3.5,1.5,7.3,3.9,9.7
			c5.6,5.6,21.2,5.3,23.1,5.2c2.4,0.1,17.8,0.3,23.5-5.2c2.5-2.4,3.6-6.2,4-9.7c0-0.3,0.1-0.5,0.1-0.8c0,0,0,0,0,0
			c0.1-1,0.1-1.9,0.1-2.7V53.6C101.7,52.8,101.7,52,101.6,51.2z"/>
	</defs>
	<clipPath id="SVGID_00000041282458219416194560000011685997078512371102_">
		<use xlink:href="#SVGID_00000097460814553683424460000008249921709479778981_"  style="overflow:visible;"/>
	</clipPath>
	<path style="clip-path:url(#SVGID_00000041282458219416194560000011685997078512371102_);fill:#3F4F66;" d="M112.9,42.4
		c-7.6,3.2-20.9,7.6-38,7.6c-17,0-30.3-4.4-37.9-7.6c0-1.8,0-3.6,0-5.4c8,3.1,21.1,7.1,37.8,7.1c16.8,0,30.1-4,38.1-7.1
		C112.9,38.8,112.9,40.6,112.9,42.4z"/>
</g>
<g class="st0">
	<path class="st7" d="M74.1,44.8c14,0,25.4-2.1,25.4-4.6c0-2.6-11.4-4.6-25.4-4.6c-14,0-25.4,2.1-25.4,4.6
		C48.7,42.8,60.1,44.8,74.1,44.8z"/>
	<path class="st1" d="M58.4,41c2.8,0,5-0.4,5-0.9c0-0.5-2.2-0.9-5-0.9s-5,0.4-5,0.9C53.4,40.6,55.6,41,58.4,41z"/>
</g>
</svg>
