<svg width="34" height="28" viewBox="0 0 34 28" fill="none" xmlns="http://www.w3.org/2000/svg">
<rect width="390" height="844" transform="translate(-49 -779)" fill="white"/>
<path d="M7.30762 11.884V23.2307C7.30762 23.4347 7.38866 23.6304 7.53293 23.7746C7.67719 23.9189 7.87286 23.9999 8.07688 23.9999H12.6925V17.4612C12.6925 17.1552 12.814 16.8617 13.0304 16.6453C13.2468 16.4289 13.5403 16.3073 13.8464 16.3073H17.6927C17.9987 16.3073 18.2922 16.4289 18.5086 16.6453C18.725 16.8617 18.8466 17.1552 18.8466 17.4612V23.9999H23.4621C23.6662 23.9999 23.8618 23.9189 24.0061 23.7746C24.1504 23.6304 24.2314 23.4347 24.2314 23.2307V11.884" stroke="#3E4F66" stroke-width="1.5" stroke-linecap="round" stroke-linejoin="round"/>
<path d="M26.5394 13.9996L16.2933 4.19148C16.0529 3.93762 15.4908 3.93473 15.2461 4.19148L5 13.9996M22.6931 10.2975V4.76842H20.3853V8.08587" stroke="#3E4F66" stroke-width="1.5" stroke-linecap="round" stroke-linejoin="round"/>
</svg>
