<svg width="70" height="70" viewBox="0 0 70 70" fill="none" xmlns="http://www.w3.org/2000/svg">
<g clip-path="url(#clip0_110_1056)">
<path fill-rule="evenodd" clip-rule="evenodd" d="M60.6937 40.3865C60.6542 36.3552 59.602 32.3984 57.6337 28.88C56.6823 27.1318 55.5279 25.502 54.1944 24.0245C53.7741 23.5201 53.3267 23.0389 52.854 22.5831C51.4139 21.1829 49.8382 19.9291 48.1503 18.8403C44.7063 16.6869 40.875 15.2265 36.8714 14.5411C34.7102 14.1493 32.5179 13.9546 30.3215 13.9595C29.0885 13.9536 27.8561 14.0127 26.6294 14.1365C10.1156 15.7803 1.92053e-05 28.2731 1.92053e-05 38.2623C-0.00291569 39.8758 0.330557 41.4722 0.979189 42.9496C1.62782 44.427 2.57736 45.753 3.76717 46.8428C4.95698 47.9327 6.36094 48.7625 7.88945 49.2794C9.41796 49.7962 11.0374 49.9888 12.6445 49.8446C13.7697 52.6128 15.9084 54.8474 18.6247 56.0928C21.3409 57.3381 24.4299 57.5003 27.2616 56.5462C31.7124 60.2637 33.3815 67.1423 34.2413 70L43.6488 66.9653C42.6583 63.9868 42.3219 60.8298 42.6626 57.7095C45.0061 57.8457 47.3525 57.4964 49.5547 56.6833C51.757 55.8703 53.7675 54.6112 55.4603 52.9848C57.1532 51.3585 58.4918 49.4 59.3924 47.2321C60.2929 45.0642 60.7359 42.7336 60.6937 40.3865ZM38.6922 51.9942C37.5117 55.7181 37.2003 59.663 37.7818 63.526H37.5036C34.9747 56.9255 31.9906 52.7528 28.0708 50.8815C26.9206 51.494 25.6387 51.818 24.3356 51.8253C23.0324 51.8326 21.747 51.5231 20.59 50.9234C19.433 50.3237 18.4391 49.4519 17.6937 48.3829C16.9484 47.3139 16.474 46.0798 16.3114 44.7868C10.5961 45.3938 4.70376 43.5729 5.0831 37.5794C5.48772 30.8273 12.5181 21.6979 24.7832 19.4725C26.2129 19.2195 27.6574 19.059 29.1077 18.992C29.4373 17.2918 30.3278 15.7513 31.6366 14.617C32.992 15.8082 33.8868 17.4369 34.1655 19.2196C35.6217 19.3611 37.0612 19.6406 38.4646 20.0542C43.0155 21.0992 47.1205 23.5539 50.1947 27.0685C53.2688 30.5831 55.1553 34.9783 55.5853 39.6278C56.0152 49.0606 48.5802 53.7644 38.6922 51.9942Z" fill="#3E4F66"/>
<path d="M62.7168 0.278181C62.3696 0.0433473 61.96 -0.0821533 61.5409 -0.0821533C61.1217 -0.0821533 60.7121 0.0433473 60.3649 0.278181C56.6954 2.85019 54.1378 6.71819 53.2081 11.1019C53.1263 11.6291 53.0841 12.1616 53.0817 12.6951C53.075 13.811 53.2882 14.9172 53.7091 15.9506C54.13 16.9841 54.7503 17.9246 55.5347 18.7183C56.319 19.512 57.252 20.1435 58.2803 20.5767C59.3087 21.0098 60.4123 21.2361 61.5282 21.2428C61.915 21.2813 62.3047 21.2813 62.6915 21.2428C64.7032 20.9587 66.5466 19.9633 67.8874 18.4369C69.2282 16.9105 69.9777 14.9542 70 12.9227C70 5.33598 63.0203 0.581649 62.7168 0.278181ZM61.5282 16.9689C60.7149 16.9716 59.9205 16.7244 59.2522 16.2609C58.6897 15.9136 58.2276 15.4254 57.9119 14.8446C57.5611 14.2638 57.3693 13.601 57.3555 12.9227C57.5032 11.3901 57.9524 9.90183 58.6771 8.54342C59.4019 7.185 60.388 5.98324 61.5788 5.00722C62.7838 5.97226 63.7812 7.17092 64.5113 8.53115C65.2414 9.89137 65.6891 11.3851 65.8274 12.9227C65.7944 14.0385 65.3261 15.0972 64.5227 15.8722C63.7193 16.6472 62.6445 17.0772 61.5282 17.0701V16.9689ZM44.4328 24.9856C44.0897 24.7405 43.6786 24.6087 43.2569 24.6087C42.8352 24.6087 42.4241 24.7405 42.081 24.9856C41.7269 25.2385 33.2045 31.1561 33.2045 40.159C33.2045 42.8418 34.2703 45.4147 36.1673 47.3118C38.0644 49.2088 40.6373 50.2746 43.3201 50.2746C46.003 50.2746 48.5759 49.2088 50.4729 47.3118C52.37 45.4147 53.4357 42.8418 53.4357 40.159C53.3093 31.1055 44.8375 25.3143 44.4328 25.0867V24.9856ZM43.2695 45.9249C41.7246 45.9182 40.2452 45.2997 39.1551 44.2049C38.0651 43.1101 37.4531 41.6281 37.4531 40.0831C37.4531 35.0253 41.2717 31.1813 43.2695 29.3858C44.9252 30.6706 46.2968 32.2843 47.2979 34.1254C48.299 35.9665 48.9078 37.995 49.086 40.0831C49.0994 40.8566 48.9591 41.625 48.6731 42.3439C48.3871 43.0627 47.9612 43.7175 47.4201 44.2704C46.8789 44.8233 46.2334 45.2631 45.5209 45.5645C44.8084 45.8659 44.0431 46.0228 43.2695 46.026V45.9249ZM36.8714 14.44C35.8318 12.7155 34.4453 11.2257 32.7999 10.065C32.4568 9.81992 32.0456 9.68817 31.624 9.68817C31.2023 9.68817 30.7912 9.81992 30.448 10.065C28.9465 11.1478 27.6529 12.4929 26.6294 14.0354C25.5127 15.6275 24.8724 17.5046 24.7833 19.4473C24.7689 19.5733 24.7689 19.7005 24.7833 19.8266C24.8606 21.5792 25.6047 23.236 26.8632 24.4582C28.1218 25.6803 29.7998 26.3754 31.5539 26.4012C33.308 26.4271 35.0057 25.7817 36.2997 24.5972C37.5938 23.4127 38.3863 21.7785 38.5152 20.0289V19.8266C38.4775 17.9449 37.9075 16.1124 36.8714 14.5412V14.44ZM34.3425 19.8266C34.3425 20.5275 34.0641 21.1997 33.5685 21.6953C33.0729 22.1909 32.4007 22.4693 31.6998 22.4693C30.9989 22.4693 30.3268 22.1909 29.8312 21.6953C29.3356 21.1997 29.0571 20.5275 29.0571 19.8266C29.0571 19.5231 29.0571 19.2449 29.1836 18.9668C29.5132 17.2665 30.4037 15.726 31.7125 14.5918C33.0679 15.7829 33.9627 17.4116 34.2414 19.1944L34.3425 19.8266Z" fill="#3E4F66"/>
</g>
<defs>
<clipPath id="clip0_110_1056">
<rect width="70" height="70" fill="white"/>
</clipPath>
</defs>
</svg>
