<svg width="30" height="22" viewBox="0 0 30 22" fill="none" xmlns="http://www.w3.org/2000/svg">
<path d="M24.1255 5.5C23.9424 8.04187 22.0567 10 20.0005 10C17.9442 10 16.0555 8.0425 15.8755 5.5C15.688 2.85562 17.5236 1 20.0005 1C22.4774 1 24.313 2.90375 24.1255 5.5Z" stroke="#7FAEC5" stroke-linecap="round" stroke-linejoin="round"/>
<path d="M20.0007 14C15.9276 14 12.0107 16.0231 11.0295 19.9631C10.8995 20.4844 11.2264 21 11.762 21H28.2401C28.7757 21 29.1007 20.4844 28.9726 19.9631C27.9914 15.96 24.0745 14 20.0007 14Z" stroke="#7FAEC5" stroke-miterlimit="10"/>
<path d="M11.5006 6.62125C11.3543 8.65125 9.8306 10.25 8.1881 10.25C6.5456 10.25 5.01935 8.65188 4.8756 6.62125C4.72622 4.50938 6.20935 3 8.1881 3C10.1668 3 11.65 4.54813 11.5006 6.62125Z" stroke="#7FAEC5" stroke-linecap="round" stroke-linejoin="round"/>
<path d="M11.8756 14.125C10.7475 13.6082 9.50499 13.4094 8.18811 13.4094C4.93811 13.4094 1.80686 15.025 1.02249 18.1719C0.919361 18.5882 1.18061 19.0001 1.60811 19.0001H8.62561" stroke="#7FAEC5" stroke-miterlimit="10" stroke-linecap="round"/>
</svg>
