<svg width="43" height="22" viewBox="0 0 43 22" fill="none" xmlns="http://www.w3.org/2000/svg">
<path d="M29.0975 13.4763L38.1392 4.61914M19.2295 7.42866L25.4031 13.4763L18.8406 7.04771M5.22949 16.8572L15.2434 7.04771" stroke="#7FAEC5" stroke-linecap="round" stroke-linejoin="round"/>
<path d="M39.6455 5.28571C40.8536 5.28571 41.833 4.32632 41.833 3.14286C41.833 1.95939 40.8536 1 39.6455 1C38.4374 1 37.458 1.95939 37.458 3.14286C37.458 4.32632 38.4374 5.28571 39.6455 5.28571Z" stroke="#7FAEC5" stroke-linecap="round" stroke-linejoin="round"/>
<path d="M27.25 17.4285C28.4581 17.4285 29.4375 16.4691 29.4375 15.2857C29.4375 14.1022 28.4581 13.1428 27.25 13.1428C26.0419 13.1428 25.0625 14.1022 25.0625 15.2857C25.0625 16.4691 26.0419 17.4285 27.25 17.4285Z" stroke="#7FAEC5" stroke-linecap="round" stroke-linejoin="round"/>
<path d="M17.042 7.42854C18.2501 7.42854 19.2295 6.46915 19.2295 5.28568C19.2295 4.10221 18.2501 3.14282 17.042 3.14282C15.8339 3.14282 14.8545 4.10221 14.8545 5.28568C14.8545 6.46915 15.8339 7.42854 17.042 7.42854Z" stroke="#7FAEC5" stroke-linecap="round" stroke-linejoin="round"/>
<path d="M3.1875 21.0001C4.39562 21.0001 5.375 20.0407 5.375 18.8572C5.375 17.6737 4.39562 16.7144 3.1875 16.7144C1.97938 16.7144 1 17.6737 1 18.8572C1 20.0407 1.97938 21.0001 3.1875 21.0001Z" stroke="#7FAEC5" stroke-linecap="round" stroke-linejoin="round"/>
</svg>
