<svg width="25" height="24" viewBox="0 0 25 24" fill="none" xmlns="http://www.w3.org/2000/svg">
<path d="M3.38715 15.1428H1.47743C1.21375 15.1428 1 15.3187 1 15.5357V22.6071C1 22.8241 1.21375 23 1.47743 23H3.38715C3.65083 23 3.86458 22.8241 3.86458 22.6071V15.5357C3.86458 15.3187 3.65083 15.1428 3.38715 15.1428Z" stroke="#7FAEC5" stroke-linecap="round" stroke-linejoin="round"/>
<path d="M16.7563 10.4286H14.8466C14.5829 10.4286 14.3691 10.6045 14.3691 10.8214V22.6072C14.3691 22.8241 14.5829 23 14.8466 23H16.7563C17.02 23 17.2337 22.8241 17.2337 22.6072V10.8214C17.2337 10.6045 17.02 10.4286 16.7563 10.4286Z" stroke="#7FAEC5" stroke-linecap="round" stroke-linejoin="round"/>
<path d="M23.4389 4.92859H21.5292C21.2655 4.92859 21.0518 5.10448 21.0518 5.32145V22.6072C21.0518 22.8241 21.2655 23 21.5292 23H23.4389C23.7026 23 23.9163 22.8241 23.9163 22.6072V5.32145C23.9163 5.10448 23.7026 4.92859 23.4389 4.92859Z" stroke="#7FAEC5" stroke-linecap="round" stroke-linejoin="round"/>
<path d="M10.0707 1H8.16102C7.89735 1 7.68359 1.17589 7.68359 1.39286V22.6071C7.68359 22.8241 7.89735 23 8.16102 23H10.0707C10.3344 23 10.5482 22.8241 10.5482 22.6071V1.39286C10.5482 1.17589 10.3344 1 10.0707 1Z" stroke="#7FAEC5" stroke-linecap="round" stroke-linejoin="round"/>
</svg>
