<?xml version="1.0" encoding="utf-8"?>
<!-- Generator: Adobe Illustrator 27.2.0, SVG Export Plug-In . SVG Version: 6.00 Build 0)  -->
<svg version="1.1" id="Layer_1" xmlns="http://www.w3.org/2000/svg" xmlns:xlink="http://www.w3.org/1999/xlink" x="0px" y="0px"
	 viewBox="0 0 150 150" style="enable-background:new 0 0 150 150;" xml:space="preserve">
<style type="text/css">
	.st0{opacity:0;}
	.st1{fill:#4F6075;}
	.st2{fill:#3F4F66;}
	.st3{opacity:0;fill:#4F6075;}
	.st4{fill:#6EC2C9;}
	.st5{opacity:0;clip-path:url(#SVGID_00000099638066911928912750000015934342849292101796_);fill:#3F4F66;}
	.st6{opacity:0;clip-path:url(#SVGID_00000089554306201852724160000009568960400439805092_);fill:#3F4F66;}
	.st7{opacity:0;clip-path:url(#SVGID_00000024693788326029994880000008710971101154157737_);fill:#3F4F66;}
	.st8{opacity:0;clip-path:url(#SVGID_00000161627884428536826570000002351219698440649858_);fill:#3F4F66;}
</style>
<g class="st0">
	<path class="st1" d="M74.1,44.8c14,0,25.4-2.1,25.4-4.6c0-2.6-11.4-4.6-25.4-4.6c-14,0-25.4,2.1-25.4,4.6
		C48.7,42.8,60.1,44.8,74.1,44.8z"/>
	<path class="st2" d="M58.4,41c2.8,0,5-0.4,5-0.9c0-0.5-2.2-0.9-5-0.9s-5,0.4-5,0.9C53.4,40.6,55.6,41,58.4,41z"/>
</g>
<path class="st3" d="M74.1,44.7c14,0,25.4-2.1,25.4-4.6c0-2.6-11.4-4.6-25.4-4.6c-14,0-25.4,2.1-25.4,4.6
	C48.7,42.7,60.1,44.7,74.1,44.7z"/>
<g class="st0">
	<g>
		<rect x="101.3" y="95.3" class="st2" width="7.2" height="2.6"/>
		<path class="st2" d="M107.9,91.7h-1.9c-0.5,0-0.9,0.4-0.9,0.9v6.7c0,0.5,0.4,0.9,0.9,0.9h1.9c0.5,0,0.9-0.4,0.9-0.9v-6.7
			C108.8,92.1,108.4,91.7,107.9,91.7z"/>
	</g>
	<path class="st2" d="M111,93.1c0.5,0,1-0.2,1.2-0.7c0.2-0.4,0.2-0.9,0-1.2c-0.1-0.2-0.3-0.3-0.7-0.5c-0.8-0.4-1.6-0.4-1.7-0.4
		c-1.3,0-2.4,0.1-3.1,0.1c-2.6,0.3-3,0.3-3.9,0.5c-0.7,0.2-1.3,0.3-1.6,0.5c-0.8,0.3-0.9,0.5-0.9,0.6c0,0.4,2,0.6,5.1,0.9
		c1.6,0.1,2.6,0.2,3.4,0.2C109.6,93.2,110.4,93.2,111,93.1z"/>
</g>
<path class="st4" d="M101.6,51.2c-0.2-2.4-0.8-4.2-1.6-5.7l0-0.1c-0.2-0.5-0.5-0.9-0.8-1.3c-0.5-0.7-1.1-1.3-1.8-1.7
	c0,0-0.1-0.1-0.1-0.1c-0.6-0.4-1.2-0.6-1.9-0.6H73.7v0H53.2c-0.7,0-1.4,0.3-2,0.7l-0.1,0.1c-0.7,0.5-1.2,1-1.7,1.7
	c-0.3,0.4-0.6,0.8-0.8,1.3c0,0.1-0.1,0.1-0.1,0.2c-0.7,1.4-1.3,3.3-1.5,5.6c-0.1,0.8-0.1,1.6-0.1,2.4v49.6c0,0.9,0,1.8,0.1,2.8
	c0,0.1,0,0.2,0,0.3c0,0.2,0,0.3,0.1,0.5c0.4,3.5,1.5,7.3,3.9,9.7c5.6,5.6,21.2,5.3,23.1,5.2c2.4,0.1,17.8,0.3,23.5-5.2
	c2.5-2.4,3.6-6.2,4-9.7c0-0.3,0.1-0.5,0.1-0.8c0,0,0,0,0,0c0.1-1,0.1-1.9,0.1-2.7V53.6C101.7,52.8,101.7,52,101.6,51.2z"/>
<g>
	<defs>
		<path id="SVGID_1_" d="M101.6,51.2c-0.2-2.4-0.8-4.2-1.6-5.7l0-0.1c-0.2-0.5-0.5-0.9-0.8-1.3c-0.5-0.7-1.1-1.3-1.8-1.7
			c0,0-0.1-0.1-0.1-0.1c-0.6-0.4-1.2-0.6-1.9-0.6H73.7v0H53.2c-0.7,0-1.4,0.3-2,0.7l-0.1,0.1c-0.7,0.5-1.2,1-1.7,1.7
			c-0.3,0.4-0.6,0.8-0.8,1.3c0,0.1-0.1,0.1-0.1,0.2c-0.7,1.4-1.3,3.3-1.5,5.6c-0.1,0.8-0.1,1.6-0.1,2.4v49.6c0,0.9,0,1.8,0.1,2.8
			c0,0.1,0,0.2,0,0.3c0,0.2,0,0.3,0.1,0.5c0.4,3.5,1.5,7.3,3.9,9.7c5.6,5.6,21.2,5.3,23.1,5.2c2.4,0.1,17.8,0.3,23.5-5.2
			c2.5-2.4,3.6-6.2,4-9.7c0-0.3,0.1-0.5,0.1-0.8c0,0,0,0,0,0c0.1-1,0.1-1.9,0.1-2.7V53.6C101.7,52.8,101.7,52,101.6,51.2z"/>
	</defs>
	<clipPath id="SVGID_00000165199729870684462700000013832600202971729072_">
		<use xlink:href="#SVGID_1_"  style="overflow:visible;"/>
	</clipPath>
	<path style="opacity:0;clip-path:url(#SVGID_00000165199729870684462700000013832600202971729072_);fill:#3F4F66;" d="M112.9,102.3
		c-7.6,3.2-20.9,7.6-38,7.6c-17,0-30.3-4.4-37.9-7.6c0-1.8,0-3.6,0-5.4c8,3.1,21.1,7.1,37.8,7.1c16.8,0,30.1-4,38.1-7.1
		C112.9,98.7,112.9,100.5,112.9,102.3z"/>
</g>
<g>
	<defs>
		<path id="SVGID_00000049199093142418209460000002728271813316055697_" d="M101.6,51.2c-0.2-2.4-0.8-4.2-1.6-5.7l0-0.1
			c-0.2-0.5-0.5-0.9-0.8-1.3c-0.5-0.7-1.1-1.3-1.8-1.7c0,0-0.1-0.1-0.1-0.1c-0.6-0.4-1.2-0.6-1.9-0.6H73.7v0H53.2
			c-0.7,0-1.4,0.3-2,0.7l-0.1,0.1c-0.7,0.5-1.2,1-1.7,1.7c-0.3,0.4-0.6,0.8-0.8,1.3c0,0.1-0.1,0.1-0.1,0.2c-0.7,1.4-1.3,3.3-1.5,5.6
			c-0.1,0.8-0.1,1.6-0.1,2.4v49.6c0,0.9,0,1.8,0.1,2.8c0,0.1,0,0.2,0,0.3c0,0.2,0,0.3,0.1,0.5c0.4,3.5,1.5,7.3,3.9,9.7
			c5.6,5.6,21.2,5.3,23.1,5.2c2.4,0.1,17.8,0.3,23.5-5.2c2.5-2.4,3.6-6.2,4-9.7c0-0.3,0.1-0.5,0.1-0.8c0,0,0,0,0,0
			c0.1-1,0.1-1.9,0.1-2.7V53.6C101.7,52.8,101.7,52,101.6,51.2z"/>
	</defs>
	<clipPath id="SVGID_00000036970570852626468890000018254601345876119965_">
		<use xlink:href="#SVGID_00000049199093142418209460000002728271813316055697_"  style="overflow:visible;"/>
	</clipPath>
	<path style="opacity:0;clip-path:url(#SVGID_00000036970570852626468890000018254601345876119965_);fill:#3F4F66;" d="M112.9,83.6
		c-7.6,3.2-20.9,7.6-38,7.6c-17,0-30.3-4.4-37.9-7.6c0-1.8,0-3.6,0-5.4c8,3.1,21.1,7.1,37.8,7.1c16.8,0,30.1-4,38.1-7.1
		C112.9,79.9,112.9,81.8,112.9,83.6z"/>
</g>
<g>
	<defs>
		<path id="SVGID_00000154427657994605555060000008576869805476836747_" d="M101.6,51.2c-0.2-2.4-0.8-4.2-1.6-5.7l0-0.1
			c-0.2-0.5-0.5-0.9-0.8-1.3c-0.5-0.7-1.1-1.3-1.8-1.7c0,0-0.1-0.1-0.1-0.1c-0.6-0.4-1.2-0.6-1.9-0.6H73.7v0H53.2
			c-0.7,0-1.4,0.3-2,0.7l-0.1,0.1c-0.7,0.5-1.2,1-1.7,1.7c-0.3,0.4-0.6,0.8-0.8,1.3c0,0.1-0.1,0.1-0.1,0.2c-0.7,1.4-1.3,3.3-1.5,5.6
			c-0.1,0.8-0.1,1.6-0.1,2.4v49.6c0,0.9,0,1.8,0.1,2.8c0,0.1,0,0.2,0,0.3c0,0.2,0,0.3,0.1,0.5c0.4,3.5,1.5,7.3,3.9,9.7
			c5.6,5.6,21.2,5.3,23.1,5.2c2.4,0.1,17.8,0.3,23.5-5.2c2.5-2.4,3.6-6.2,4-9.7c0-0.3,0.1-0.5,0.1-0.8c0,0,0,0,0,0
			c0.1-1,0.1-1.9,0.1-2.7V53.6C101.7,52.8,101.7,52,101.6,51.2z"/>
	</defs>
	<clipPath id="SVGID_00000071552857564654983160000017610825224427792039_">
		<use xlink:href="#SVGID_00000154427657994605555060000008576869805476836747_"  style="overflow:visible;"/>
	</clipPath>
	<path style="opacity:0;clip-path:url(#SVGID_00000071552857564654983160000017610825224427792039_);fill:#3F4F66;" d="M112.9,64.9
		c-7.6,3.2-20.9,7.6-38,7.6c-17,0-30.3-4.4-37.9-7.6c0-1.8,0-3.6,0-5.4c8,3.1,21.1,7.1,37.8,7.1c16.8,0,30.1-4,38.1-7.1
		C112.9,61.2,112.9,63,112.9,64.9z"/>
</g>
<g>
	<defs>
		<path id="SVGID_00000026867470801707442990000018249532823273157814_" d="M101.6,51.2c-0.2-2.4-0.8-4.2-1.6-5.7l0-0.1
			c-0.2-0.5-0.5-0.9-0.8-1.3c-0.5-0.7-1.1-1.3-1.8-1.7c0,0-0.1-0.1-0.1-0.1c-0.6-0.4-1.2-0.6-1.9-0.6H73.7v0H53.2
			c-0.7,0-1.4,0.3-2,0.7l-0.1,0.1c-0.7,0.5-1.2,1-1.7,1.7c-0.3,0.4-0.6,0.8-0.8,1.3c0,0.1-0.1,0.1-0.1,0.2c-0.7,1.4-1.3,3.3-1.5,5.6
			c-0.1,0.8-0.1,1.6-0.1,2.4v49.6c0,0.9,0,1.8,0.1,2.8c0,0.1,0,0.2,0,0.3c0,0.2,0,0.3,0.1,0.5c0.4,3.5,1.5,7.3,3.9,9.7
			c5.6,5.6,21.2,5.3,23.1,5.2c2.4,0.1,17.8,0.3,23.5-5.2c2.5-2.4,3.6-6.2,4-9.7c0-0.3,0.1-0.5,0.1-0.8c0,0,0,0,0,0
			c0.1-1,0.1-1.9,0.1-2.7V53.6C101.7,52.8,101.7,52,101.6,51.2z"/>
	</defs>
	<clipPath id="SVGID_00000152979678833658596510000007511318394773783168_">
		<use xlink:href="#SVGID_00000026867470801707442990000018249532823273157814_"  style="overflow:visible;"/>
	</clipPath>
	<path style="opacity:0;clip-path:url(#SVGID_00000152979678833658596510000007511318394773783168_);fill:#3F4F66;" d="M112.9,42.4
		c-7.6,3.2-20.9,7.6-38,7.6c-17,0-30.3-4.4-37.9-7.6c0-1.8,0-3.6,0-5.4c8,3.1,21.1,7.1,37.8,7.1c16.8,0,30.1-4,38.1-7.1
		C112.9,38.8,112.9,40.6,112.9,42.4z"/>
</g>
</svg>
